<svg width="24" height="24" viewBox="0 0 24 24" fill="none" xmlns="http://www.w3.org/2000/svg">
<path fill-rule="evenodd" clip-rule="evenodd" d="M6 2H18C20.2091 2 22 3.79086 22 6V18C22 20.2091 20.2091 22 18 22H6C3.79086 22 2 20.2091 2 18V6C2 3.79086 3.79086 2 6 2ZM15.48 15.48C15.7725 15.1872 15.7725 14.7128 15.48 14.42L13.06 12L15.48 9.58C15.7554 9.28449 15.7472 8.82399 15.4616 8.53838C15.176 8.25277 14.7155 8.24464 14.42 8.52L12 10.94L9.58 8.52C9.28449 8.24464 8.82399 8.25277 8.53838 8.53838C8.25277 8.82399 8.24464 9.28449 8.52 9.58L10.94 12L8.52 14.42C8.22755 14.7128 8.22755 15.1872 8.52 15.48C8.66285 15.6172 8.852 15.6957 9.05 15.7C9.24841 15.6977 9.43828 15.6189 9.58 15.48L12 13.06L14.42 15.48C14.5617 15.6189 14.7516 15.6977 14.95 15.7C15.148 15.6957 15.3372 15.6172 15.48 15.48Z" fill="#0B1C3F"/>
</svg>
